HIERARCHY
ROOT pelvis
{
  OFFSET 0 100 0
  CHANNELS 6 Xposition Yposition Zposition Zrotation Xrotation Yrotation
  JOINT pelvis_right_femur
  {
    OFFSET -10.78128 -3.44521 -0.5502486
    CHANNELS 3 Zrotation Xrotation Yrotation
    JOINT right_femur_tibia
    {
      OFFSET -0.8047443 -44.0398 -0.1307829
      CHANNELS 3 Zrotation Xrotation Yrotation
      JOINT right_tibia_foot
      {
        OFFSET 3.006224 -47.83518 -5
        CHANNELS 3 Zrotation Xrotation Yrotation
        End Site
        {
          OFFSET 0 -5 15
        }
      }
    }
  }
  JOINT pelvis_left_femur
  {
    OFFSET 10.78128 -3.44521 -0.5502486
    CHANNELS 3 Zrotation Xrotation Yrotation
    JOINT left_femur_tibia
    {
      OFFSET 0.8047443 -44.0398 -0.1307829
      CHANNELS 3 Zrotation Xrotation Yrotation
      JOINT left_tibia_foot
      {
        OFFSET -4.370144 -48.10324 -4.275266
        CHANNELS 3 Zrotation Xrotation Yrotation
        End Site
        {
          OFFSET 0 -5 15
        }
      }
    }
  }
  JOINT pelvis_spine1
  {
    OFFSET 0 6.468898 -3.129235
    CHANNELS 3 Zrotation Xrotation Yrotation
    JOINT spine1
    {
      OFFSET 0 23.15396 4.99043
      CHANNELS 3 Zrotation Xrotation Yrotation
      JOINT spine2
      {
        OFFSET 0 20.79997 -5.064912
        CHANNELS 3 Zrotation Xrotation Yrotation
        JOINT neck
        {
          OFFSET 0 14.38658 9.616178
          CHANNELS 3 Zrotation Xrotation Yrotation
          End Site
          {
            OFFSET 0 20 0
          }
        }
      }
      JOINT right_manubrium
      {
        OFFSET -5.722621 16.35077 3.967754
        CHANNELS 3 Zrotation Xrotation Yrotation
        JOINT right_clavicle
        {
          OFFSET -13.16364 1.694482 -4.693211
          CHANNELS 3 Zrotation Xrotation Yrotation
          JOINT right_humerus
          {
            OFFSET -28.5034 -0.3100689 -2.792744
            CHANNELS 3 Zrotation Xrotation Yrotation
            JOINT right_radius
            {
              OFFSET -25.15693 0.02248979 -1.271978
              CHANNELS 3 Zrotation Xrotation Yrotation
              End Site
              {
                OFFSET -15 0 0
              }
            }
          }
        }
      }
      JOINT left_manubrium
      {
        OFFSET 5.722621 16.35077 3.967754
        CHANNELS 3 Zrotation Xrotation Yrotation
        JOINT left_clavicle
        {
          OFFSET 13.16364 1.694482 -4.693211
          CHANNELS 3 Zrotation Xrotation Yrotation
          JOINT left_humerus
          {
            OFFSET 29.39168 -1.063119 -2.237045
            CHANNELS 3 Zrotation Xrotation Yrotation
            JOINT left_radius
            {
              OFFSET 24.59957 -0.9528479 0.9047498
              CHANNELS 3 Zrotation Xrotation Yrotation
              End Site
              {
                OFFSET 15 -0 -0
              }
            }
          }
        }
      }
    }
  }
}
MOTION
Frames: 15
Frame Time: 0.0416666666667
879.5904 102.99 1238.742 -2.865283 0.1973139 62.52455 6.970242 -32.49824 5.260005 -0 22.73916 -0 -7.910508 -5.719103 -0.233901 -5.750897 12.30841 -17.95591 -0 8.269014 -0 7.895371 -21.85723 22.01849 -3.121571 -1.904411 3.060657 3.694543 7.828331 -7.9589 1.354689 22.25326 6.104665 2.772215 -24.80162 8.198445 6.85682 -17.17329 11.34126 85.14877 34.71766 -20.09541 -0 0 12.26414 -7.212548 7.661252 7.104689 3.141472 -17.91869 -3.313081 -93.99498 34.05666 22.15184 0 0 -19.31561 -3.761754 14.65703 18.63304
882.5041 102.991 1240.021 -2.8657 0.1911648 62.6474 6.970242 -32.49824 5.260005 -0 22.73916 -0 -7.910508 -5.719103 -0.233901 -5.750897 12.30841 -17.95591 -0 8.269014 -0 7.895371 -21.85723 22.01849 -3.121571 -1.904411 3.060657 3.694543 7.828331 -7.9589 1.354689 22.25326 6.104665 2.772215 -24.80162 8.198445 6.85682 -17.17329 11.34126 85.14877 34.71766 -20.09541 -0 0 12.26414 -7.212548 7.661252 7.104689 3.141472 -17.91869 -3.313081 -93.99498 34.05666 22.15184 0 0 -19.31561 -3.761754 14.65703 18.63304
885.4205 102.9921 1241.294 -2.866103 0.1850149 62.77025 6.970242 -32.49824 5.260005 -0 22.73916 -0 -7.910508 -5.719103 -0.233901 -5.750897 12.30841 -17.95591 -0 8.269014 -0 7.895371 -21.85723 22.01849 -3.121571 -1.904411 3.060657 3.694543 7.828331 -7.9589 1.354689 22.25326 6.104665 2.772215 -24.80162 8.198445 6.85682 -17.17329 11.34126 85.14877 34.71766 -20.09541 -0 0 12.26414 -7.212548 7.661252 7.104689 3.141472 -17.91869 -3.313081 -93.99498 34.05666 22.15184 0 0 -19.31561 -3.761754 14.65703 18.63304
888.3397 102.9931 1242.561 -2.866493 0.1788641 62.8931 6.970242 -32.49824 5.260005 -0 22.73916 -0 -7.910508 -5.719103 -0.233901 -5.750897 12.30841 -17.95591 -0 8.269014 -0 7.895371 -21.85723 22.01849 -3.121571 -1.904411 3.060657 3.694543 7.828331 -7.9589 1.354689 22.25326 6.104665 2.772215 -24.80162 8.198445 6.85682 -17.17329 11.34126 85.14877 34.71766 -20.09541 -0 0 12.26414 -7.212548 7.661252 7.104689 3.141472 -17.91869 -3.313081 -93.99498 34.05666 22.15184 0 0 -19.31561 -3.761754 14.65703 18.63304
891.2615 102.9942 1243.822 -2.86687 0.1727125 63.01595 6.970242 -32.49824 5.260005 -0 22.73916 -0 -7.910508 -5.719103 -0.233901 -5.750897 12.30841 -17.95591 -0 8.269014 -0 7.895371 -21.85723 22.01849 -3.121571 -1.904411 3.060657 3.694543 7.828331 -7.9589 1.354689 22.25326 6.104665 2.772215 -24.80162 8.198445 6.85682 -17.17329 11.34126 85.14877 34.71766 -20.09541 -0 0 12.26414 -7.212548 7.661252 7.104689 3.141472 -17.91869 -3.313081 -93.99498 34.05666 22.15184 0 0 -19.31561 -3.761754 14.65703 18.63304
894.1861 102.9952 1245.076 -2.867234 0.1665601 63.1388 6.970242 -32.49824 5.260005 -0 22.73916 -0 -7.910508 -5.719103 -0.233901 -5.750897 12.30841 -17.95591 -0 8.269014 -0 7.895371 -21.85723 22.01849 -3.121571 -1.904411 3.060657 3.694543 7.828331 -7.9589 1.354689 22.25326 6.104665 2.772215 -24.80162 8.198445 6.85682 -17.17329 11.34126 85.14877 34.71766 -20.09541 -0 0 12.26414 -7.212548 7.661252 7.104689 3.141472 -17.91869 -3.313081 -93.99498 34.05666 22.15184 0 0 -19.31561 -3.761754 14.65703 18.63304
897.1134 102.9963 1246.324 -2.867584 0.1604069 63.26165 6.970242 -32.49824 5.260005 -0 22.73916 -0 -7.910508 -5.719103 -0.233901 -5.750897 12.30841 -17.95591 -0 8.269014 -0 7.895371 -21.85723 22.01849 -3.121571 -1.904411 3.060657 3.694543 7.828331 -7.9589 1.354689 22.25326 6.104665 2.772215 -24.80162 8.198445 6.85682 -17.17329 11.34126 85.14877 34.71766 -20.09541 -0 0 12.26414 -7.212548 7.661252 7.104689 3.141472 -17.91869 -3.313081 -93.99498 34.05666 22.15184 0 0 -19.31561 -3.761754 14.65703 18.63304
900.0433 102.9973 1247.566 -2.867922 0.154253 63.3845 6.970242 -32.49824 5.260005 -0 22.73916 -0 -7.910508 -5.719103 -0.233901 -5.750897 12.30841 -17.95591 -0 8.269014 -0 7.895371 -21.85723 22.01849 -3.121571 -1.904411 3.060657 3.694543 7.828331 -7.9589 1.354689 22.25326 6.104665 2.772215 -24.80162 8.198445 6.85682 -17.17329 11.34126 85.14877 34.71766 -20.09541 -0 0 12.26414 -7.212548 7.661252 7.104689 3.141472 -17.91869 -3.313081 -93.99498 34.05666 22.15184 0 0 -19.31561 -3.761754 14.65703 18.63304
902.9759 102.9983 1248.802 -2.868246 0.1480983 63.50734 6.970242 -32.49824 5.260005 -0 22.73916 -0 -7.910508 -5.719103 -0.233901 -5.750897 12.30841 -17.95591 -0 8.269014 -0 7.895371 -21.85723 22.01849 -3.121571 -1.904411 3.060657 3.694543 7.828331 -7.9589 1.354689 22.25326 6.104665 2.772215 -24.80162 8.198445 6.85682 -17.17329 11.34126 85.14877 34.71766 -20.09541 -0 0 12.26414 -7.212548 7.661252 7.104689 3.141472 -17.91869 -3.313081 -93.99498 34.05666 22.15184 0 0 -19.31561 -3.761754 14.65703 18.63304
905.9112 102.9994 1250.031 -2.868557 0.141943 63.63019 6.970242 -32.49824 5.260005 -0 22.73916 -0 -7.910508 -5.719103 -0.233901 -5.750897 12.30841 -17.95591 -0 8.269014 -0 7.895371 -21.85723 22.01849 -3.121571 -1.904411 3.060657 3.694543 7.828331 -7.9589 1.354689 22.25326 6.104665 2.772215 -24.80162 8.198445 6.85682 -17.17329 11.34126 85.14877 34.71766 -20.09541 -0 0 12.26414 -7.212548 7.661252 7.104689 3.141472 -17.91869 -3.313081 -93.99498 34.05666 22.15184 0 0 -19.31561 -3.761754 14.65703 18.63304
908.849 103.0004 1251.254 -2.868855 0.1357871 63.75304 6.970242 -32.49824 5.260005 -0 22.73916 -0 -7.910508 -5.719103 -0.233901 -5.750897 12.30841 -17.95591 -0 8.269014 -0 7.895371 -21.85723 22.01849 -3.121571 -1.904411 3.060657 3.694543 7.828331 -7.9589 1.354689 22.25326 6.104665 2.772215 -24.80162 8.198445 6.85682 -17.17329 11.34126 85.14877 34.71766 -20.09541 -0 0 12.26414 -7.212548 7.661252 7.104689 3.141472 -17.91869 -3.313081 -93.99498 34.05666 22.15184 0 0 -19.31561 -3.761754 14.65703 18.63304
911.7895 103.0015 1252.471 -2.869139 0.1296305 63.87589 6.970242 -32.49824 5.260005 -0 22.73916 -0 -7.910508 -5.719103 -0.233901 -5.750897 12.30841 -17.95591 -0 8.269014 -0 7.895371 -21.85723 22.01849 -3.121571 -1.904411 3.060657 3.694543 7.828331 -7.9589 1.354689 22.25326 6.104665 2.772215 -24.80162 8.198445 6.85682 -17.17329 11.34126 85.14877 34.71766 -20.09541 -0 0 12.26414 -7.212548 7.661252 7.104689 3.141472 -17.91869 -3.313081 -93.99498 34.05666 22.15184 0 0 -19.31561 -3.761754 14.65703 18.63304
914.7326 103.0025 1253.681 -2.86941 0.1234733 63.99874 6.970242 -32.49824 5.260005 -0 22.73916 -0 -7.910508 -5.719103 -0.233901 -5.750897 12.30841 -17.95591 -0 8.269014 -0 7.895371 -21.85723 22.01849 -3.121571 -1.904411 3.060657 3.694543 7.828331 -7.9589 1.354689 22.25326 6.104665 2.772215 -24.80162 8.198445 6.85682 -17.17329 11.34126 85.14877 34.71766 -20.09541 -0 0 12.26414 -7.212548 7.661252 7.104689 3.141472 -17.91869 -3.313081 -93.99498 34.05666 22.15184 0 0 -19.31561 -3.761754 14.65703 18.63304
917.6783 103.0036 1254.885 -2.869669 0.1173156 64.12159 6.970242 -32.49824 5.260005 -0 22.73916 -0 -7.910508 -5.719103 -0.233901 -5.750897 12.30841 -17.95591 -0 8.269014 -0 7.895371 -21.85723 22.01849 -3.121571 -1.904411 3.060657 3.694543 7.828331 -7.9589 1.354689 22.25326 6.104665 2.772215 -24.80162 8.198445 6.85682 -17.17329 11.34126 85.14877 34.71766 -20.09541 -0 0 12.26414 -7.212548 7.661252 7.104689 3.141472 -17.91869 -3.313081 -93.99498 34.05666 22.15184 0 0 -19.31561 -3.761754 14.65703 18.63304
920.6266 103.0046 1256.083 -2.869914 0.1111573 64.24444 6.970242 -32.49824 5.260005 -0 22.73916 -0 -7.910508 -5.719103 -0.233901 -5.750897 12.30841 -17.95591 -0 8.269014 -0 7.895371 -21.85723 22.01849 -3.121571 -1.904411 3.060657 3.694543 7.828331 -7.9589 1.354689 22.25326 6.104665 2.772215 -24.80162 8.198445 6.85682 -17.17329 11.34126 85.14877 34.71766 -20.09541 -0 0 12.26414 -7.212548 7.661252 7.104689 3.141472 -17.91869 -3.313081 -93.99498 34.05666 22.15184 0 0 -19.31561 -3.761754 14.65703 18.63304
